<svg width="150" height="49" viewBox="0 0 150 49" fill="none" xmlns="http://www.w3.org/2000/svg">
<path d="M131.112 19.3798C131.112 22.0747 131.675 26.4568 138.166 26.4568H142.853C145.032 26.4568 145.594 27.6754 145.594 29.4563V31.4951C145.594 34.0728 143.134 34.0025 141.587 34.0025H134.463L131.979 38.2206L141.423 38.2909C141.704 38.2909 141.986 38.2909 142.267 38.2909C146.04 38.2909 150 37.377 150 31.4013V29.1283C150 26.035 148.922 22.0512 143.649 22.0512H138.845C136.666 22.0512 135.541 21.6763 135.541 19.0048V17.341C135.541 14.2946 137.135 14.1775 139.619 14.1775H146.743L148.992 10.2874L138.658 10.1703C134.393 10.1234 131.112 11.5763 131.112 17.0833V19.3798ZM110.491 32.9714C110.491 37.7988 113.959 38.2674 116.466 38.2674H128.675L126.215 34.0494H117.263C116.162 34.0494 114.896 34.0962 114.896 32.0809V26.5505L124.012 26.5271V22.1918H114.896V16.6614C114.896 15.6304 114.896 14.529 116.888 14.529H126.285L128.699 10.3343L116.091 10.3109C113.514 10.2406 110.491 11.3888 110.491 15.7944V32.9714ZM88.8377 14.4118H95.2586V38.244H99.6641V14.4118H106.296L108.686 10.264H86.4006L88.8377 14.4118ZM79.0189 38.244H83.4245V10.264H79.0189V38.244ZM53.1714 38.1971H57.6238L57.6707 18.5596L70.0906 38.1971H74.4962L74.543 10.264H70.114V29.9484L57.6941 10.264H53.1948L53.1714 38.1971Z" fill="#005687"/>
<path fill-rule="evenodd" clip-rule="evenodd" d="M33.2058 19.9891L24.254 19.9188L15.3023 19.9891C15.3023 19.8953 15.3023 19.7782 15.3023 19.6844C15.3023 14.7399 19.3095 10.7327 24.2306 10.7093H24.254H24.2775C29.222 10.7327 33.2058 14.7399 33.2058 19.6844C33.2058 19.7782 33.2058 19.8719 33.2058 19.9891Z" fill="#939598"/>
<path fill-rule="evenodd" clip-rule="evenodd" d="M24.2538 8.13152C27.4174 8.13152 30.2998 9.42038 32.3854 11.506C34.471 13.5916 35.7598 16.474 35.7598 19.661C35.7598 19.8484 35.7833 19.8953 35.7833 19.9656H37.2362C37.2362 19.7781 37.2362 19.7781 37.2362 19.661C37.2362 16.0756 35.7833 12.8417 33.4399 10.4983C31.0965 8.15495 27.8626 6.70206 24.3007 6.70206H24.2773H24.2538C20.6919 6.70206 17.458 8.15495 15.1146 10.4983C12.7713 12.8417 11.3184 16.099 11.3184 19.661C11.3184 19.7547 11.3184 19.7781 11.3184 19.989L12.7713 19.9422C12.7713 19.8484 12.7713 19.8484 12.7713 19.661C12.7713 16.474 14.0601 13.5916 16.1457 11.506C18.2079 9.42038 21.0903 8.13152 24.2538 8.13152Z" fill="#939598"/>
<path fill-rule="evenodd" clip-rule="evenodd" d="M24.254 1.47633C30.5343 1.47633 36.2053 4.03062 40.3296 8.13154C44.454 12.2559 46.9848 17.9503 46.9848 24.2306C46.9848 29.0111 45.4851 33.5573 42.8605 37.3067C40.3999 40.8217 36.9317 43.6572 32.7839 45.321L29.9719 30.1359H36.0881L36.9317 28.683H28.2378L31.6825 47.266L32.4793 46.9848C37.2598 45.2507 41.2436 42.1106 44.0322 38.1269C46.8208 34.1431 48.4143 29.3157 48.4143 24.2306C48.4143 17.5519 45.696 11.4826 41.3139 7.10045C36.9317 2.71832 30.9092 0.0234338 24.2306 0H24.2072H24.1837C17.5051 0 11.4826 2.71832 7.10045 7.10045C2.71833 11.4826 0 17.5285 0 24.2306C0 29.3157 1.5935 34.1431 4.38213 38.1269C7.17075 42.1106 11.1545 45.2507 15.935 46.9848L16.7318 47.266L20.1765 28.683H11.4591L12.3028 30.1359H18.419L15.6069 45.321C11.4591 43.6338 7.99094 40.8217 5.53039 37.3067C2.9058 33.5573 1.40603 29.0345 1.40603 24.2306C1.40603 17.9503 3.96032 12.2559 8.06124 8.13154C12.3028 4.03062 17.9738 1.49976 24.254 1.47633Z" fill="#939598"/>
<path fill-rule="evenodd" clip-rule="evenodd" d="M7.42871 21.5357H41.0797L37.8927 27.0661H26.5976V48.4143H21.9343V27.0661H10.6391L7.42871 21.5357Z" fill="#005687"/>
<path d="M99.4532 47.805C99.5938 47.805 99.7579 47.7816 99.8985 47.7113C100.039 47.6644 100.203 47.5472 100.367 47.3832L100.601 47.1723L99.4064 45.5788L99.0314 45.9069C98.8439 46.0709 98.7033 46.235 98.633 46.399C98.5627 46.563 98.5159 46.7271 98.5159 46.8911C98.5159 47.1723 98.6096 47.4066 98.7736 47.5707C98.9377 47.7347 99.172 47.805 99.4532 47.805ZM99.3595 48.344C99.1017 48.344 98.8439 48.2737 98.633 48.1565C98.4221 48.0394 98.2581 47.8753 98.1409 47.6644C98.0238 47.4535 97.9534 47.2192 97.9534 46.9145C97.9534 46.6568 98.0003 46.4224 98.1175 46.1881C98.2347 45.9537 98.3987 45.7428 98.633 45.5554L99.1017 45.157L98.9611 44.9695C98.8205 44.7586 98.7033 44.5712 98.6565 44.4071C98.6096 44.2431 98.5862 44.1025 98.5862 43.9619C98.5862 43.7275 98.633 43.5401 98.7502 43.3995C98.8674 43.2589 99.008 43.1651 99.1954 43.0948C99.3829 43.0245 99.5938 43.0011 99.8047 43.0011C99.9922 43.0011 100.156 43.0011 100.32 43.0245C100.484 43.048 100.601 43.0479 100.719 43.0479C100.836 43.0714 100.953 43.0714 101.047 43.0948V43.5166H99.8985C99.6876 43.5166 99.5001 43.5635 99.3595 43.6338C99.2189 43.7275 99.1486 43.8681 99.1486 44.0556C99.1486 44.1728 99.172 44.2899 99.2423 44.4305C99.3126 44.5712 99.3829 44.7118 99.5235 44.8758L100.953 46.8208L102.031 45.8131L102.242 46.0475L101.75 46.7271L101.258 47.1957L102.054 48.2737H101.445L100.883 47.5238L100.648 47.7347C100.414 47.9456 100.203 48.0862 100.016 48.18C99.8282 48.2971 99.5938 48.344 99.3595 48.344ZM79.4173 48.344C79.3001 48.344 79.183 48.344 79.0423 48.3206C78.9017 48.2971 78.7846 48.2503 78.6674 48.18C78.5502 48.1097 78.4565 48.0159 78.3862 47.8753C78.3159 47.7347 78.269 47.5472 78.269 47.3129V44.079C78.269 43.8681 78.2925 43.7041 78.3628 43.5635C78.4331 43.4229 78.5034 43.3292 78.5971 43.2354C78.6908 43.1651 78.808 43.0948 78.9252 43.0714C79.0423 43.0245 79.183 43.0245 79.3001 43.0245C79.6048 43.0245 79.886 43.0245 80.1203 43.0479C80.3781 43.0479 80.6124 43.0714 80.8468 43.0714C81.0811 43.0714 81.292 43.0948 81.5029 43.0948V43.5635H79.4876C79.3001 43.5635 79.1595 43.6104 79.0423 43.7041C78.9252 43.7978 78.8783 43.9619 78.8783 44.1962V45.4616L81.2451 45.5085V45.9537L78.8783 46.0006V47.2426C78.8783 47.4301 78.9017 47.5472 78.972 47.641C79.0423 47.7347 79.1126 47.7816 79.2064 47.8285C79.3001 47.8519 79.4173 47.8753 79.511 47.8753H81.5498V48.344C81.3389 48.3674 81.1045 48.3674 80.8468 48.3909C80.6124 48.3909 80.3546 48.4143 80.1203 48.4143C79.886 48.3206 79.6516 48.3206 79.4173 48.344ZM147.75 48.2971V43.5166H146.11V43.0011H149.953V43.5166H148.313V48.2971H147.75ZM141.728 48.2971V43.0011H142.197L144.962 47.3129V43.0011H145.524V48.2971H145.055L142.29 43.9853V48.2971H141.728ZM138.517 48.344C138.4 48.344 138.283 48.344 138.142 48.3206C138.002 48.2971 137.885 48.2503 137.768 48.18C137.65 48.1097 137.557 48.0159 137.486 47.8753C137.416 47.7347 137.369 47.5472 137.369 47.3129V44.079C137.369 43.8681 137.393 43.7041 137.463 43.5635C137.533 43.4229 137.604 43.3292 137.697 43.2354C137.791 43.1651 137.908 43.0948 138.025 43.0714C138.142 43.0245 138.283 43.0245 138.4 43.0245C138.705 43.0245 138.986 43.0245 139.22 43.0479C139.478 43.0479 139.713 43.0714 139.947 43.0714C140.181 43.0714 140.392 43.0948 140.603 43.0948V43.5635H138.517C138.33 43.5635 138.189 43.6104 138.072 43.7041C137.955 43.7978 137.908 43.9619 137.908 44.1962V45.4616L140.275 45.5085V45.9537L137.908 46.0006V47.2426C137.908 47.4301 137.932 47.5472 138.002 47.641C138.072 47.7347 138.142 47.7816 138.236 47.8285C138.33 47.8519 138.447 47.8753 138.541 47.8753H140.58V48.344C140.369 48.3674 140.134 48.3674 139.877 48.3909C139.642 48.3909 139.384 48.4143 139.15 48.4143C139.01 48.3206 138.752 48.3206 138.517 48.344ZM131.394 48.2971L132.003 43.0011H132.589L133.995 47.5941L135.377 43.0011H135.963L136.572 48.2971H136.01L135.471 43.6572L135.565 43.6807L134.229 48.3206H133.713L132.331 43.7041L132.448 43.6807L131.933 48.3206H131.394V48.2971ZM128.863 48.2971V43.5166H127.222V43.0011H131.065V43.5166H129.425V48.2971H128.863ZM125.98 48.2971V43.0011H126.566V48.2971H125.98ZM119.817 48.2971L120.427 43.0011H121.012L122.418 47.5941L123.801 43.0011H124.387L124.996 48.2971H124.434L123.895 43.6572L123.988 43.6807L122.653 48.3206H122.137L120.755 43.7041L120.872 43.6807L120.356 48.3206H119.817V48.2971ZM113.795 48.2971L114.404 43.0011H114.99L116.396 47.5941L117.778 43.0011H118.364L118.974 48.2971H118.411L117.872 43.6572L117.966 43.6807L116.63 48.3206H116.115L114.732 43.7041L114.849 43.6807L114.334 48.3206H113.795V48.2971ZM111.053 47.8285C111.311 47.8285 111.545 47.805 111.733 47.7582C111.92 47.7113 112.084 47.5941 112.201 47.4535C112.318 47.3129 112.412 47.0786 112.459 46.7974C112.506 46.5162 112.529 46.1412 112.529 45.6725C112.529 45.1804 112.506 44.8055 112.436 44.5008C112.389 44.1962 112.295 43.9853 112.178 43.8447C112.061 43.7041 111.92 43.5869 111.733 43.5401C111.545 43.4932 111.311 43.4698 111.053 43.4698C110.795 43.4698 110.584 43.4932 110.397 43.5401C110.209 43.5869 110.069 43.6807 109.928 43.8447C109.811 43.9853 109.717 44.2196 109.647 44.5008C109.577 44.8055 109.553 45.1804 109.553 45.6725C109.553 46.1412 109.577 46.5162 109.623 46.7974C109.67 47.0786 109.764 47.2895 109.881 47.4535C109.998 47.5941 110.139 47.7113 110.35 47.7582C110.561 47.805 110.772 47.8285 111.053 47.8285ZM111.053 48.344C110.701 48.344 110.42 48.3206 110.162 48.2503C109.905 48.18 109.694 48.0628 109.53 47.8753C109.366 47.6878 109.225 47.4301 109.155 47.0786C109.085 46.7271 109.038 46.2584 109.038 45.6725C109.038 45.0867 109.085 44.618 109.178 44.2665C109.272 43.915 109.389 43.6338 109.577 43.4463C109.741 43.2589 109.975 43.1182 110.209 43.0479C110.467 42.9776 110.748 42.9542 111.1 42.9542C111.451 42.9542 111.756 42.9776 112.014 43.0479C112.272 43.1182 112.482 43.2589 112.646 43.4463C112.811 43.6338 112.951 43.915 113.021 44.2665C113.092 44.618 113.139 45.0867 113.139 45.6725C113.139 46.2584 113.092 46.7271 113.021 47.0786C112.928 47.4301 112.811 47.7113 112.646 47.8753C112.482 48.0628 112.272 48.18 112.014 48.2503C111.709 48.3206 111.404 48.344 111.053 48.344ZM106.765 48.344C106.437 48.344 106.179 48.2971 105.944 48.2268C105.71 48.1565 105.523 48.0159 105.359 47.8285C105.195 47.641 105.101 47.3598 105.007 47.0083C104.937 46.6568 104.89 46.1881 104.89 45.6257C104.89 45.0867 104.937 44.6415 105.007 44.2899C105.077 43.9384 105.195 43.6572 105.359 43.4698C105.523 43.2823 105.71 43.1417 105.944 43.0479C106.179 42.9776 106.46 42.9308 106.788 42.9308C106.929 42.9308 107.093 42.9308 107.28 42.9542C107.468 42.9776 107.632 43.0011 107.819 43.0245C108.007 43.048 108.147 43.0948 108.311 43.1183V43.5401C108.241 43.5166 108.124 43.5166 107.96 43.4932C107.819 43.4698 107.632 43.4698 107.444 43.4463C107.257 43.4229 107.069 43.4229 106.858 43.4229C106.601 43.4229 106.39 43.4463 106.202 43.5166C106.015 43.5635 105.874 43.6807 105.757 43.8447C105.64 44.0087 105.569 44.2196 105.499 44.5008C105.452 44.7821 105.429 45.157 105.429 45.6022C105.429 46.0475 105.452 46.4224 105.499 46.7271C105.546 47.0083 105.64 47.2426 105.733 47.3832C105.851 47.5472 105.991 47.641 106.155 47.7113C106.343 47.7582 106.554 47.805 106.811 47.805C107.163 47.805 107.468 47.805 107.702 47.7816C107.936 47.7582 108.124 47.7347 108.264 47.7113V48.1331C108.124 48.1565 107.96 48.2034 107.796 48.2268C107.632 48.2503 107.444 48.2737 107.257 48.2971C107.116 48.344 106.929 48.344 106.765 48.344ZM93.173 48.344C93.0558 48.344 92.9386 48.344 92.798 48.3206C92.6574 48.2971 92.5402 48.2503 92.4231 48.18C92.3059 48.1097 92.2122 48.0159 92.1419 47.8753C92.0716 47.7347 92.0247 47.5472 92.0247 47.3129V44.079C92.0247 43.8681 92.0481 43.7041 92.1184 43.5635C92.1887 43.4229 92.259 43.3292 92.3528 43.2354C92.4465 43.1651 92.5637 43.0948 92.6808 43.0714C92.798 43.0245 92.9386 43.0245 93.0558 43.0245C93.3604 43.0245 93.6416 43.0245 93.876 43.0479C94.1337 43.0479 94.3681 43.0714 94.6024 43.0714C94.8368 43.0714 95.0477 43.0948 95.2586 43.0948V43.5635H93.173C92.9855 43.5635 92.8449 43.6104 92.7277 43.7041C92.6105 43.7978 92.5637 43.9619 92.5637 44.1962V45.4616L94.9305 45.5085V45.9537L92.5637 46.0006V47.2426C92.5637 47.4301 92.5871 47.5472 92.6574 47.641C92.7277 47.7347 92.798 47.7816 92.8917 47.8285C92.9855 47.8519 93.1026 47.8753 93.1964 47.8753H95.2351V48.344C95.0242 48.3674 94.7899 48.3674 94.5321 48.3909C94.2978 48.3909 94.04 48.4143 93.8057 48.4143C93.6416 48.3206 93.4073 48.3206 93.173 48.344ZM88.908 48.344C88.5799 48.344 88.2987 48.2971 88.0644 48.18C87.8535 48.0628 87.666 47.8988 87.5488 47.6879C87.4317 47.4769 87.3379 47.1957 87.2911 46.8442C87.2442 46.4927 87.2208 46.0943 87.2208 45.6257C87.2208 45.1804 87.2442 44.7821 87.3145 44.454C87.3614 44.1259 87.4551 43.8447 87.5957 43.6104C87.7363 43.376 87.9238 43.212 88.1581 43.1183C88.3924 43.0011 88.6737 42.9542 89.0252 42.9542C89.2126 42.9542 89.4001 42.9542 89.611 42.9776C89.8219 43.0011 90.0094 43.0245 90.1969 43.0479C90.3843 43.0714 90.5718 43.1183 90.7358 43.1417V43.5635C90.6421 43.5401 90.5015 43.5401 90.3375 43.5166C90.1734 43.4932 89.9625 43.4932 89.7516 43.4698C89.5407 43.4698 89.3298 43.4463 89.1189 43.4463C88.7674 43.4463 88.5096 43.5166 88.3222 43.6572C88.1347 43.7978 87.9941 44.0322 87.9238 44.3602C87.8535 44.6883 87.8066 45.1101 87.8066 45.6257C87.8066 46.0475 87.83 46.399 87.8769 46.6802C87.9238 46.9614 87.9941 47.1723 88.0878 47.3363C88.1815 47.5004 88.3221 47.6176 88.4862 47.6879C88.6502 47.7582 88.8611 47.7816 89.1189 47.7816C89.3532 47.7816 89.5876 47.7582 89.8219 47.6879C90.0563 47.6176 90.2672 47.5707 90.4312 47.5004V45.9303H89.0955V45.5554C89.1892 45.5319 89.3064 45.5319 89.4235 45.5085C89.5641 45.5085 89.6813 45.4851 89.8453 45.4851C89.986 45.4851 90.15 45.4851 90.2906 45.4851C90.4078 45.4851 90.5249 45.4851 90.6421 45.4851C90.7593 45.4851 90.853 45.4851 90.9233 45.5085V48.2971H90.5015L90.4078 47.9222C90.2437 48.0159 90.0094 48.0862 89.7516 48.18C89.4938 48.2971 89.2126 48.344 88.908 48.344ZM83.0964 47.805H84.5727C84.8539 47.805 85.0883 47.7113 85.2758 47.5472C85.4632 47.3832 85.5804 47.1254 85.6741 46.7974C85.7679 46.4693 85.8147 46.0943 85.8147 45.6725C85.8147 45.2742 85.7913 44.9461 85.7444 44.6649C85.6976 44.3837 85.6273 44.1728 85.5335 44.0087C85.4398 43.8447 85.2992 43.7275 85.1586 43.6338C84.9945 43.5635 84.8305 43.5166 84.6196 43.5166H83.1433V47.805H83.0964ZM82.5106 48.2971V43.0011H84.6196C84.9477 43.0011 85.2054 43.0714 85.4398 43.1886C85.6507 43.3057 85.8382 43.4698 85.9788 43.7041C86.1194 43.9384 86.2131 44.1962 86.2834 44.5477C86.3537 44.8758 86.3771 45.2507 86.3771 45.6725C86.3771 46.235 86.3068 46.7036 86.1897 47.102C86.0491 47.5004 85.8616 47.805 85.6038 48.0159C85.3461 48.2268 85.018 48.344 84.643 48.344H82.5106V48.2971ZM75.5273 48.2971C75.3164 48.2971 75.1289 48.2737 74.9649 48.2034C74.8008 48.1331 74.6837 48.0394 74.5899 47.8753C74.4962 47.7113 74.4493 47.5004 74.4493 47.2426V43.0011H75.0352V47.1489C75.0352 47.3129 75.0586 47.4535 75.1289 47.5472C75.1758 47.641 75.2695 47.6878 75.3632 47.7347C75.457 47.7581 75.5507 47.7816 75.6679 47.7816H77.566V48.2971H75.5273ZM68.3565 48.2971L66.9974 43.0011H67.5832L68.7315 47.5238L70.0438 43.0011H70.6296L71.9419 47.5238L73.0902 43.0011H73.676L72.3168 48.2971H71.7076L70.3718 43.7978L69.0127 48.2971H68.3565ZM64.3962 47.8285C64.654 47.8285 64.8883 47.805 65.0758 47.7582C65.2633 47.7113 65.4273 47.5941 65.5445 47.4535C65.6616 47.3129 65.7554 47.0786 65.8022 46.7974C65.8491 46.5162 65.8725 46.1412 65.8725 45.6725C65.8725 45.1804 65.8491 44.8055 65.7788 44.5008C65.7319 44.1962 65.6382 43.9853 65.521 43.8447C65.4039 43.7041 65.2633 43.5869 65.0758 43.5401C64.8883 43.4932 64.654 43.4698 64.3962 43.4698C64.1384 43.4698 63.9275 43.4932 63.7401 43.5401C63.5526 43.5869 63.412 43.6807 63.2714 43.8447C63.1542 43.9853 63.0605 44.2196 62.9902 44.5008C62.9199 44.8055 62.8964 45.1804 62.8964 45.6725C62.8964 46.1412 62.9199 46.5162 62.9667 46.7974C63.0136 47.0786 63.1073 47.2895 63.2245 47.4535C63.3417 47.5941 63.4823 47.7113 63.6932 47.7582C63.8807 47.805 64.115 47.8285 64.3962 47.8285ZM64.3962 48.344C64.0447 48.344 63.7635 48.3206 63.5057 48.2503C63.2479 48.18 63.037 48.0628 62.873 47.8753C62.709 47.6878 62.5684 47.4301 62.4981 47.0786C62.4043 46.7271 62.3809 46.2584 62.3809 45.6725C62.3809 45.0867 62.4278 44.618 62.5215 44.2665C62.6152 43.915 62.7324 43.6338 62.9199 43.4463C63.0839 43.2589 63.3182 43.1182 63.5526 43.0479C63.8104 42.9776 64.0916 42.9542 64.4431 42.9542C64.7946 42.9542 65.0992 42.9776 65.357 43.0479C65.6148 43.1182 65.8257 43.2589 65.9897 43.4463C66.1537 43.6338 66.2943 43.915 66.3646 44.2665C66.4349 44.618 66.4818 45.0867 66.4818 45.6725C66.4818 46.2584 66.4349 46.7271 66.3646 47.0786C66.2709 47.4301 66.1537 47.7113 65.9897 47.8753C65.8257 48.0628 65.6148 48.18 65.357 48.2503C65.0289 48.3206 64.7243 48.344 64.3962 48.344ZM57.6473 48.2971V43.0011H58.1159L60.8811 47.3129V43.0011H61.4435V48.2971H60.9749L58.2097 43.9853V48.2971H57.6473ZM53.1948 48.2971V43.0011H53.7807V45.3913H54.718L56.1709 43.0011H56.7802L55.1633 45.6491L56.8036 48.2971H56.1944L54.718 45.9069H53.7807V48.2971H53.1948Z" fill="black"/>
</svg>
